# xmcd
#
# Track frame offsets: 
#        150
#        15049
#        29806
#        43557
#        59306
#        73906
#        92644
#        112307
#        132635
#        150041
#
# Disc length: 2263 seconds
#
# Revision: 0
# Processed by: cddbd v1.5.2PL0 Copyright (c) Steve Scherf et al.
# Submitted via: ExactAudioCopy v0.99pb4
#
DISCID=8208d50a
DTITLE=Vdelli - Out Of The Sun
DYEAR=2016
DGENRE=Blues
TTITLE0=Get Up, Get on It
TTITLE1=Out Of The Sun
TTITLE2=The Things That I Do
TTITLE3=Looking For A Lifeline
TTITLE4=Noel Burnt The Kitchen Down
TTITLE5=It's Not Always About You
TTITLE6=Newtown
TTITLE7=Addicted To Everything
TTITLE8=Rock Out
TTITLE9=High Ground Made
EXTD=
EXTT0=
EXTT1=
EXTT2=
EXTT3=
EXTT4=
EXTT5=
EXTT6=
EXTT7=
EXTT8=
EXTT9=
PLAYORDER=
